<svg xmlns="http://www.w3.org/2000/svg" viewBox="0 0 62 48">
<path fill="#fff" d="M52.5,0l-2.2,7H43l5.9,4.1L46.6,18l5.9-4.2l5.9,4.2l-2.3-6.9L62,7h-7.3L52.5,0z M42,7C29,7,8,8,0,17h13
	c2-3,7-9,29-9V7z M7.6,18.3c-4,0-7.4,2.1-7.4,6.5c0,3.6,2.3,4.7,4.5,5.8c2.2,1.1,4.7,1.5,4.7,3.9c0,1.3-0.9,2.7-3.1,2.7
	c-2.4,0-4.1-1.8-4.1-3.3H1.1L0,38.3c1.8,0.7,3.6,1,5.8,1c3.6,0,8.3-1.8,8.3-6.5c0-3.6-3.3-5.4-5.8-6.5c-2.6-1.1-3.8-1.8-3.8-3.3
	s0.6-2.2,3.1-2.2c1.8,0,3.7,0.8,4.4,1.2c1.9-0.1,4-0.3,6-0.3V39h5V21.7c2,0,3.8,0.2,5.7,0.3v-3H12.2C10.9,18.6,9.2,18.3,7.6,18.3z
	 M33,19l-9,20h3.5l2.5-6h6.5l2.5,6h6l-9-20H33z M45,39h5v-9l6,9h6l-7-9.7c3-0.7,4.7-2.6,4.7-5.3c0-3-2.2-5-5.7-5h-9V39z M50,21
	c3,0,4.3,1,4.3,3c0,4-3.3,4-4.3,4V21z M33.4,25.2l2.4,5.8h-4.9L33.4,25.2z"/>
</svg>