<svg xmlns="http://www.w3.org/2000/svg" width="186" height="48" viewBox="0 0 186 48">
<path fill="#fff" d="m 54.94295,15.50008 c -6.65571,0 -11.40965,3.49994 -11.40965,8.59995 0,3.80003 3.32779,5.90011 5.895,7.10015 2.66228,1.29997 3.518,2.09983 3.518,3.19981 0,1.80002 -2.0918,2.60007 -4.08851,2.60007 -2.94753,-0.1 -4.94421,-0.69986 -7.22617,-1.79989 l -0.95084,5.89999 c 1.61637,0.70004 4.46893,1.39992 7.51153,1.39992 7.13112,0 11.69491,-3.50004 11.78999,-8.90004 0,-3 -1.80646,-5.19991 -5.70482,-7.09993 -2.37705,-1.19997 -3.80337,-2.00006 -3.80337,-3.20004 0,-1.10003 1.23606,-2.29997 3.89834,-2.29997 2.09179,0 3.89854,0.49999 5.70505,1.30003 l 0.95084,-5.7 c -1.42625,-0.49999 -3.5182,-1.10005 -6.08539,-1.10005 z M 25.00049,16.00016 18.00024,33.80003 14.95755,18.31444 c -0.40002,-1.70002 -1.50011,-2.1001 -3.00024,-2.20009 l -11.50060049,0 0,0.72889 C 4.4569195,17.84328 6.4571695,18.6145 7.9572995,19.61448 L 14,42 l 7.27154,0 10.77188,-25.99984 -7.04293,0 z m 9.81434,0 L 29.39917,42 l 7.00047,0 5.41566,-25.99984 -7.00047,0 z m 38.1235,0 c -1.60541,0 -2.83304,0.49985 -3.49409,2.19987 L 59.52822,42 l 7.08271,0.1001 1.32202,-3.90011 8.594,0 0.85006,3.80001 6.23287,0 -5.47756,-25.99984 -5.19399,0 z m 0.47218,7.00004 2.07755,9.99987 -5.66617,0 3.58862,-9.99987 z m 31.90648,4.05496 -2.74593,15.1017 3.66124,0 1.15956,-6.37706 c 1.09866,-2.82695 4.28882,-2.8226 3.93364,-0.86922 l -1.31753,7.24628 3.66124,0 1.30794,-7.19355 c 0.8712,-4.79132 -3.92319,-5.08556 -6.99667,-2.42109 l 0.99776,-5.48706 -3.66124,0 z m 36.84126,0 -2.74593,15.1017 3.66124,0 0.83933,-4.61605 3.5084,4.61605 3.89008,0 -4.64092,-5.98111 6.35713,-5.00194 -4.1189,0 -4.51847,3.74146 1.42929,-7.86011 -3.66125,0 z m -43.65647,0.22882 c -5.2191,0 -8.28304,3.38063 -8.97389,7.55085 -0.69085,4.17021 1.38052,7.55084 6.49477,7.55084 1.42936,0 3.34482,-0.45762 4.71778,-1.02966 l 0.62928,-3.20339 c -1.23557,0.84507 -3.32505,1.48729 -4.63376,1.48729 -2.97476,0 -3.77553,-2.50359 -3.32448,-4.88061 0.45103,-2.37702 2.40917,-4.78676 5.1551,-4.78676 1.6018,0 3.08918,0.62923 3.94728,1.31568 l 0.57207,-2.97458 c -1.31576,-0.68644 -3.03188,-1.02966 -4.58415,-1.02966 z m 80.53931,0.80085 -1.87219,10.41101 c -0.45269,2.51736 0.9153,3.54661 2.5171,3.54661 l 3.54683,0 0.45766,-2.40254 -2.2952,0 c -0.45072,0 -0.75234,-0.22877 -0.62548,-0.92643 l 0.93408,-5.13713 3.47397,0 0.45765,-2.40254 -3.49476,0 0.56157,-3.08898 -3.66124,0 z m -55.80068,2.86016 c -3.96496,0 -6.72236,2.56697 -7.20159,5.72034 -0.53899,3.54661 1.17721,5.72034 5.1817,5.72034 2.37856,0 4.00448,-0.57203 5.14862,-0.91525 l 0.45766,-2.74576 c -1.14414,0.57203 -2.74594,1.25847 -4.9198,1.25847 -2.05945,0 -2.52086,-1.07679 -2.49677,-2.40254 l 4.86058,0 1.06861,0 2.31598,0 c 1.00195,-3.77543 -0.37098,-6.6356 -4.41499,-6.6356 z m 12.91491,0 c -4.1189,0 -6.84922,2.56109 -7.39444,5.72034 -0.54522,3.15926 1.04073,5.72034 5.07689,5.72034 1.12804,0 2.42645,-0.23381 3.70527,-0.6451 l 0.52849,-2.90665 c -0.97511,0.6402 -2.20294,1.0348 -3.23576,1.0348 -1.94504,0 -2.87307,-1.45982 -2.51711,-3.26059 0.35595,-1.80077 1.94504,-3.26059 3.77566,-3.26059 0.97165,0 2.03988,0.41904 2.77721,1.08597 l 0.53767,-2.9567 c -1.01728,-0.34057 -2.13159,-0.53182 -3.25388,-0.53182 z m 22.47854,0 c -4.11891,0 -6.68891,2.56109 -7.03646,5.72034 -0.34754,3.15926 1.43017,5.72034 4.977,5.72034 3.54683,0 6.68893,-2.56108 7.03645,-5.72034 0.34754,-3.15925 -0.85811,-5.72034 -4.977,-5.72034 z m 7.37455,0.22882 -1.19621,6.52118 c -0.50366,2.74577 0.22883,4.69068 2.97476,4.69068 2.05945,0 3.20359,-1.14406 4.00449,-1.94491 l -0.34324,1.7161 3.66124,0 1.9971,-10.98305 -3.66124,0 -1.04515,5.7476 c -0.34867,1.91756 -1.68296,2.816 -2.78259,2.83291 -0.9153,0 -1.41612,-0.5059 -1.24222,-1.46226 l 1.2943,-7.11825 -3.66124,0 z m -43.1861,2.05932 c 1.14661,0 1.76523,0.70383 1.76247,2.17373 l -4.73209,0 c 0.53589,-1.24569 1.56436,-2.17373 2.96962,-2.17373 z m 35.4683,0.11441 c 1.6018,0 1.9595,1.45981 1.71621,3.26059 -0.24329,1.80078 -1.37296,3.26059 -3.08917,3.26059 -1.71621,0 -1.92508,-1.45982 -1.68179,-3.26059 0.24327,-1.80077 1.45296,-3.26059 3.05475,-3.26059 z" />
</svg>