<svg xmlns="http://www.w3.org/2000/svg" width="64px" height="36px" viewBox="0 0 64 36">
<path fill="#fff" d="m 14.502,6.26 c -1.203,0.05 -2.666,0.78 -3.521,1.76 -0.769,0.868 -1.45,2.255 -1.264,3.582 1.339,0.099 2.714,-0.669 3.545,-1.648 0.831,-0.979 1.401,-2.343 1.24,-3.694 z m 10.848,2.019 0.012,0 0,20.828 1.5,0 0,-9 c 4.685,0.895 10.158,-0.535 10.24,-6.311 0.091,-6.415 -6.818,-6.4 -11.752,-5.517 z m 10.203,5.629 c -0.028,4.95 -4.857,5.66 -8.703,4.871 l 0.012,-9.408 c 4.392,-0.74 8.716,0 8.691,4.537 z M 9.902,12.916 c -0.942,0 -2.394,-1.029 -3.943,-1.004 -2.033,0.037 -3.904,1.14 -4.945,2.9 -2.107,3.545 -0.547,8.803 1.523,11.691 1.004,1.4 2.207,2.988 3.781,2.926 1.513,-0.049 2.083,-0.943 3.918,-0.943 1.822,0 2.344,0.943 3.943,0.918 2.212,0.01 4.235,-3.361 5.305,-6.148 -3.204,-1.063 -4.972,-6.299 -0.631,-9.111 -1.413,-1.983 -3.596,-2.258 -4.377,-2.295 -1.589,-0.142 -3.163,0.708 -4.574,1.066 z m 29.58,2.133 0.482,1.092 c 3.893,-2.29 8.014,-1.154 7.588,3.719 -3.979,-0.076 -9.116,0.822 -9.188,5.467 0.13,2.725 1.996,4.139 4.451,4.129 2.038,-0.025 3.66,-0.887 4.76,-2.48 l 0.063,0 0.223,2.121 1.414,0 c -0.213,-1.213 -0.209,-2.416 -0.223,-3.559 l -0.014,-5.877 c -0.015,-6.558 -5.675,-6.945 -9.556,-4.612 z m 10.909,-0.955 c 1.795,4.887 4.088,9.685 5.74,14.592 -0.811,2.767 -2.811,4.859 -5.344,6.1 L 51.297,36 c 3.383,-1.299 5.147,-4.591 6.471,-7.723 1.852,-4.631 3.765,-9.359 5.715,-14.184 l -1.611,0 c -1.58,4.316 -3.42,8.807 -4.797,13.006 l -0.063,0 c -1.359,-4.295 -3.273,-8.64 -5.021,-13.006 l -1.6,0 z m -2.838,6.967 0.012,3.273 c -0.188,2.16 -2.01,3.752 -4.574,3.869 -2.008,-0.022 -3.082,-1.383 -3.012,-3.1 0.437,-3.826 4.539,-4.025 7.574,-4.042 z" />
</svg>